<svg version="1.1" id="Layer_1" xmlns="http://www.w3.org/2000/svg" xmlns:xlink="http://www.w3.org/1999/xlink" x="0px" y="0px"
	 width="100%" viewBox="0 0 2363 2363" enable-background="new 0 0 2363 2363" xml:space="preserve">
<path fill="#000000" opacity="1.000000" stroke="none" 
	d="
M1550.000000,2366.000000 
	C1033.333374,2366.000000 517.666687,2366.000000 2.000000,2366.000000 
	C2.000000,1578.000000 2.000000,790.000000 2.000000,2.000000 
	C790.000000,2.000000 1578.000000,2.000000 2366.000000,2.000000 
	C2366.000000,790.000000 2366.000000,1578.000000 2366.000000,2366.000000 
	C2094.333252,2366.000000 1822.666626,2366.000000 1550.000000,2366.000000 
M1032.384399,1414.627686 
	C1077.557983,1456.840576 1125.921875,1494.865845 1178.971313,1526.808716 
	C1183.722046,1529.669312 1187.037720,1529.234741 1191.624878,1526.480103 
	C1242.414795,1495.982056 1288.873535,1459.766357 1332.337158,1419.688110 
	C1382.480591,1373.450317 1427.457520,1322.664917 1465.698853,1266.034790 
	C1505.640747,1206.886475 1537.241821,1143.545044 1561.693604,1076.568115 
	C1565.110229,1067.209717 1564.828003,1066.325439 1555.905029,1061.830933 
	C1530.306519,1048.936523 1504.659790,1036.137695 1478.986816,1023.392151 
	C1476.191284,1022.004333 1473.101929,1021.208435 1469.267456,1019.818604 
	C1447.965820,1080.811646 1422.374878,1138.378052 1387.263550,1191.296997 
	C1384.764893,1190.551880 1383.392944,1190.385986 1382.265747,1189.771240 
	C1351.454712,1172.967773 1333.683594,1147.288452 1332.529907,1112.023315 
	C1331.462402,1079.392212 1332.506714,1046.696655 1332.133545,1014.035034 
	C1332.044189,1006.211304 1334.811279,1001.205383 1341.782593,998.455811 
	C1355.700562,992.966492 1369.370483,986.467407 1383.739990,982.609253 
	C1398.441406,978.661865 1413.837280,977.239197 1428.971191,974.994995 
	C1434.938965,974.110046 1439.310181,972.767517 1441.029907,965.657349 
	C1449.803101,929.385864 1459.119385,893.246033 1468.155518,857.037598 
	C1468.739624,854.696838 1468.568237,852.167542 1468.823975,848.699768 
	C1464.008667,849.526306 1460.365845,849.818481 1456.917847,850.796814 
	C1432.253662,857.795288 1407.271240,863.895508 1383.065430,872.240540 
	C1330.399292,890.397400 1282.020630,916.878540 1237.277100,950.148560 
	C1228.605225,956.596680 1225.324585,963.659241 1225.478394,974.482300 
	C1226.079834,1016.806030 1225.681030,1059.143555 1225.762207,1101.475586 
	C1225.778076,1109.801392 1225.720581,1118.187866 1226.637573,1126.441895 
	C1233.468506,1187.933228 1261.986084,1236.660278 1312.970337,1272.021118 
	C1315.638916,1273.871826 1318.212158,1275.859985 1321.374390,1278.184570 
	C1319.329590,1280.851074 1317.958008,1283.078491 1316.172119,1284.899780 
	C1299.157593,1302.251221 1282.787720,1320.320679 1264.828491,1336.638428 
	C1241.924194,1357.449585 1217.847168,1376.983521 1194.006958,1396.743774 
	C1185.465332,1403.823486 1184.767700,1403.547363 1175.903320,1396.766602 
	C1131.612427,1362.887573 1090.067261,1325.999634 1053.104492,1284.128296 
	C1051.633789,1282.462402 1050.479004,1280.517334 1048.733276,1278.083984 
	C1051.810425,1275.831299 1054.390137,1273.829834 1057.081299,1271.991455 
	C1071.739502,1261.979248 1085.092529,1250.496948 1096.585205,1236.930054 
	C1129.218628,1198.406860 1144.421143,1153.675049 1144.293945,1103.410034 
	C1144.183472,1059.744751 1144.036133,1016.076538 1144.464478,972.415161 
	C1144.555664,963.114014 1142.059692,956.274597 1134.140625,951.479431 
	C1133.007690,950.793335 1132.032959,949.849426 1130.965576,949.050903 
	C1065.323486,899.945190 991.916443,868.055786 912.095886,850.428772 
	C908.683777,849.675293 905.130432,849.561707 900.250977,848.985840 
	C901.189636,853.675964 901.697571,856.877014 902.477783,860.010315 
	C910.528687,892.343689 918.287231,924.755493 926.841003,956.955811 
	C931.465088,974.363037 927.052185,973.566711 949.043762,975.605286 
	C976.531189,978.153259 1002.679993,985.427185 1027.427612,997.874756 
	C1034.895264,1001.630798 1037.997803,1006.539185 1037.883179,1015.071777 
	C1037.462402,1046.398682 1038.089600,1077.740234 1037.618774,1109.065674 
	C1037.081421,1144.812012 1020.240051,1171.169922 989.469299,1188.859985 
	C987.579712,1189.946289 985.246521,1190.260864 982.730103,1191.057861 
	C970.225891,1173.580444 960.141541,1155.172119 950.569641,1136.567627 
	C940.822388,1117.622437 931.844849,1098.242554 923.392029,1078.680664 
	C915.131104,1059.562866 907.958008,1039.974976 900.348816,1020.698425 
	C898.292908,1021.033508 897.222961,1020.968201 896.386719,1021.378784 
	C867.972473,1035.331909 839.596802,1049.363647 811.169434,1063.289673 
	C806.209351,1065.719727 805.532043,1069.277466 807.362549,1074.008423 
	C810.488159,1082.086792 813.444153,1090.231079 816.589417,1098.301636 
	C842.124878,1163.825928 875.023987,1225.405273 915.853821,1282.681396 
	C949.814697,1330.321777 988.533081,1373.801514 1032.384399,1414.627686 
M906.844971,807.896362 
	C938.064331,813.277954 968.837341,820.538818 999.096252,829.931030 
	C1043.873047,843.829651 1086.472412,862.505005 1125.542725,888.630554 
	C1144.123047,901.054810 1162.219116,914.155212 1173.975586,933.999512 
	C1175.557495,936.669373 1178.162476,938.733032 1180.623535,941.440186 
	C1186.169556,937.012573 1190.829102,933.293396 1195.487671,929.572998 
	C1251.328247,884.977173 1313.810303,852.755005 1381.582275,830.762573 
	C1450.535034,808.386963 1521.350586,797.354614 1593.915283,797.982727 
	C1597.066406,798.010071 1600.221436,797.580627 1604.975586,797.253906 
	C1602.443604,794.517334 1601.364258,792.881897 1599.877686,791.812866 
	C1567.425903,768.476746 1534.903076,745.239258 1502.470825,721.876038 
	C1498.113159,718.736938 1493.680298,717.911011 1488.394531,718.646179 
	C1432.415771,726.432678 1379.417603,743.807556 1329.251587,769.444458 
	C1294.952881,786.972534 1263.829102,809.273071 1237.429443,837.648132 
	C1213.769409,863.078613 1194.843384,891.362793 1185.256958,925.209778 
	C1184.708496,927.146362 1183.512085,928.899353 1182.191162,931.613525 
	C1177.590088,919.815369 1174.060303,909.045166 1169.295166,898.852417 
	C1151.687134,861.188232 1124.542236,831.217346 1091.888062,806.182556 
	C1029.657715,758.472961 958.481201,732.007874 881.775269,718.947693 
	C876.028381,717.969238 871.540771,719.365601 866.949829,722.690674 
	C836.736328,744.573730 806.394714,766.279846 776.131653,788.094666 
	C773.878174,789.718933 771.911194,791.740662 767.991394,795.169189 
	C780.905029,796.009399 791.364929,797.013611 801.845032,797.312500 
	C836.525146,798.301758 870.902893,802.161499 906.844971,807.896362 
M748.272034,844.381042 
	C749.502075,849.555237 750.733093,854.729248 751.961975,859.903687 
	C764.631714,913.252808 777.288513,966.604858 790.017883,1019.939697 
	C790.511475,1022.007812 791.700439,1023.909973 792.784668,1026.391357 
	C825.519958,1009.993103 857.532715,993.956848 889.917542,977.734192 
	C878.486511,933.112976 867.295105,889.653870 856.296570,846.145996 
	C855.187988,841.760620 852.883179,840.263733 848.670166,839.960388 
	C832.098450,838.767517 815.562561,836.896057 798.974182,836.170959 
	C784.007812,835.516724 768.990112,836.083679 753.995667,835.997253 
	C749.294861,835.970154 747.123169,837.860474 748.272034,844.381042 
M1554.111328,1763.282349 
	C1569.619507,1763.282349 1585.127808,1763.282349 1600.534424,1763.282349 
	C1602.656494,1750.280762 1602.085205,1613.543091 1600.022461,1606.756836 
	C1584.464233,1606.756836 1568.968994,1606.756836 1552.223145,1606.756836 
	C1552.223145,1624.949341 1552.223145,1642.434814 1552.223145,1660.298706 
	C1534.486450,1660.298706 1518.032593,1660.298706 1500.312866,1660.298706 
	C1500.312866,1642.110352 1500.312866,1624.629028 1500.312866,1606.602783 
	C1483.595093,1606.602783 1468.150635,1606.602783 1452.804443,1606.602783 
	C1450.775269,1618.906982 1451.271118,1756.179199 1453.459229,1764.022095 
	C1460.880127,1764.022095 1468.502319,1764.057007 1476.124023,1764.012329 
	C1483.964844,1763.966309 1491.805176,1763.842651 1500.693481,1763.741089 
	C1500.693481,1741.835693 1500.693481,1721.322998 1500.693481,1700.613770 
	C1518.288330,1700.613770 1534.781738,1700.613770 1552.321655,1700.613770 
	C1552.321655,1705.105225 1552.282471,1709.017456 1552.328369,1712.928589 
	C1552.519653,1729.234985 1552.736450,1745.541138 1554.111328,1763.282349 
M1592.000610,971.070068 
	C1601.872803,928.993469 1611.772705,886.923279 1621.545166,844.823486 
	C1622.101807,842.425354 1621.617065,839.785400 1621.617065,837.070862 
	C1619.736328,836.645142 1618.477539,836.130981 1617.209473,836.106934 
	C1587.903442,835.551331 1558.644531,836.290039 1529.439697,839.025635 
	C1524.404785,839.497375 1522.918823,842.196228 1521.778442,846.526245 
	C1512.888062,880.286560 1503.770630,913.987000 1494.774658,947.719727 
	C1491.885498,958.553345 1489.150879,969.428162 1486.175049,980.943726 
	C1517.213257,995.826782 1546.725098,1012.150024 1578.512451,1026.077759 
	C1583.108887,1007.443848 1587.393433,990.074951 1592.000610,971.070068 
M1006.855103,1764.022095 
	C1012.748291,1764.022095 1018.641541,1764.022095 1024.408203,1764.022095 
	C1027.391357,1754.704956 1029.995117,1746.573242 1032.583252,1738.489990 
	C1051.156616,1738.489990 1069.047119,1738.489990 1087.154053,1738.489990 
	C1090.063843,1747.208496 1092.858276,1755.581177 1095.430542,1763.288208 
	C1112.763062,1763.288208 1128.874023,1763.288208 1146.084229,1763.288208 
	C1126.272705,1710.437256 1106.840820,1658.599121 1087.322876,1606.531494 
	C1069.543335,1606.531494 1052.035278,1606.531494 1034.799927,1606.531494 
	C1025.645020,1624.311523 977.078796,1756.371460 977.029663,1764.022095 
	C986.318848,1764.022095 995.612915,1764.022095 1006.855103,1764.022095 
M1221.044922,796.022827 
	C1249.608276,769.498779 1282.076660,748.679260 1316.896851,731.555969 
	C1351.664917,714.458374 1387.929199,701.207642 1425.569946,691.830933 
	C1428.600952,691.075867 1431.505371,689.812012 1436.099854,688.218933 
	C1431.529297,684.581726 1428.565063,682.022888 1425.401855,679.739685 
	C1410.545776,669.016602 1395.126831,658.995056 1380.930542,647.464966 
	C1372.127075,640.314758 1364.331421,640.178345 1354.444824,644.112793 
	C1312.110718,660.960205 1273.812256,683.698364 1243.064331,717.956238 
	C1215.926880,748.191650 1198.862427,783.444214 1190.579712,823.069214 
	C1190.177246,824.995056 1190.715576,827.117615 1190.866333,830.172363 
	C1201.221680,818.401489 1210.630249,807.706726 1221.044922,796.022827 
M890.462402,1606.004150 
	C853.589966,1606.004150 816.717529,1606.004150 780.136230,1606.004150 
	C777.628784,1615.563843 777.700989,1755.070923 780.049194,1763.473389 
	C795.765198,1763.473389 811.591492,1763.473389 828.535522,1763.473389 
	C828.535522,1742.114014 828.535522,1721.282227 828.535522,1699.280029 
	C848.768921,1699.280029 867.929932,1699.280029 887.562988,1699.280029 
	C887.562988,1687.957031 887.562988,1677.849487 887.562988,1667.470825 
	C867.653931,1666.242798 848.395569,1668.007324 829.012085,1666.381592 
	C829.012085,1657.179932 829.012085,1649.042236 829.012085,1639.666504 
	C852.751343,1639.666504 875.858521,1639.666504 899.656799,1639.666504 
	C899.656799,1629.826416 899.493835,1621.212524 899.716187,1612.608887 
	C899.856384,1607.185181 897.179932,1605.541382 890.462402,1606.004150 
M973.930359,658.964966 
	C967.972595,663.231750 961.842224,667.280701 956.105530,671.826477 
	C950.334778,676.399170 943.023193,679.348450 939.113953,686.425476 
	C940.504211,687.283936 941.285889,687.957581 942.192566,688.286682 
	C944.066162,688.966553 945.993835,689.509277 947.920898,690.027771 
	C989.640930,701.253784 1029.323975,717.453796 1066.647217,739.226257 
	C1106.955811,762.740173 1143.731689,790.472778 1171.441528,828.784607 
	C1172.209106,829.845825 1173.615967,830.444641 1175.735596,832.001526 
	C1175.473267,828.930115 1175.507324,827.278137 1175.172729,825.704468 
	C1154.910156,730.408203 1092.504883,674.589355 1004.106812,643.109558 
	C1000.281067,641.747253 997.026550,642.437927 993.808777,644.789246 
	C987.624146,649.308655 981.322144,653.667480 973.930359,658.964966 
M1245.493286,599.511353 
	C1224.662964,578.682251 1203.832642,557.853149 1184.250366,538.272156 
	C1157.489014,565.000854 1131.754639,590.703918 1105.966553,616.460510 
	C1120.734619,633.499695 1176.652222,688.349854 1182.286499,691.563232 
	C1208.124512,665.817871 1233.768066,640.266479 1259.966675,614.161804 
	C1255.758667,609.898621 1251.126465,605.205505 1245.493286,599.511353 
M1265.670532,1756.085449 
	C1265.972534,1758.590576 1266.274536,1761.095581 1266.627563,1764.024292 
	C1274.969604,1764.024292 1282.613403,1764.125122 1290.253174,1763.996216 
	C1298.068848,1763.864258 1305.959229,1764.629883 1314.482666,1763.299805 
	C1314.482666,1723.829468 1314.482666,1685.259888 1314.482666,1645.479004 
	C1331.079224,1645.210449 1346.890381,1644.954712 1363.091553,1644.692627 
	C1363.091553,1631.440186 1363.091553,1619.293579 1363.091553,1607.258545 
	C1352.093262,1605.240967 1223.799561,1605.590454 1216.327393,1607.571167 
	C1216.327393,1619.759888 1216.327393,1631.961426 1216.327393,1645.359863 
	C1232.827393,1645.359863 1248.670532,1645.359863 1265.655884,1645.359863 
	C1265.655884,1682.457153 1265.655884,1718.355347 1265.670532,1756.085449 
z"/>
<path fill="#1F2F53" opacity="1.000000" stroke="none" 
	d="
M1031.881348,1414.124756 
	C988.533081,1373.801514 949.814697,1330.321777 915.853821,1282.681396 
	C875.023987,1225.405273 842.124878,1163.825928 816.589417,1098.301636 
	C813.444153,1090.231079 810.488159,1082.086792 807.362549,1074.008423 
	C805.532043,1069.277466 806.209351,1065.719727 811.169434,1063.289673 
	C839.596802,1049.363647 867.972473,1035.331909 896.386719,1021.378784 
	C897.222961,1020.968201 898.292908,1021.033508 900.348816,1020.698425 
	C907.958008,1039.974976 915.131104,1059.562866 923.392029,1078.680664 
	C931.844849,1098.242554 940.822388,1117.622437 950.569641,1136.567627 
	C960.141541,1155.172119 970.225891,1173.580444 982.730103,1191.057861 
	C985.246521,1190.260864 987.579712,1189.946289 989.469299,1188.859985 
	C1020.240051,1171.169922 1037.081421,1144.812012 1037.618774,1109.065674 
	C1038.089600,1077.740234 1037.462402,1046.398682 1037.883179,1015.071777 
	C1037.997803,1006.539185 1034.895264,1001.630798 1027.427612,997.874756 
	C1002.679993,985.427185 976.531189,978.153259 949.043762,975.605286 
	C927.052185,973.566711 931.465088,974.363037 926.841003,956.955811 
	C918.287231,924.755493 910.528687,892.343689 902.477783,860.010315 
	C901.697571,856.877014 901.189636,853.675964 900.250977,848.985840 
	C905.130432,849.561707 908.683777,849.675293 912.095886,850.428772 
	C991.916443,868.055786 1065.323486,899.945190 1130.965576,949.050903 
	C1132.032959,949.849426 1133.007690,950.793335 1134.140625,951.479431 
	C1142.059692,956.274597 1144.555664,963.114014 1144.464478,972.415161 
	C1144.036133,1016.076538 1144.183472,1059.744751 1144.293945,1103.410034 
	C1144.421143,1153.675049 1129.218628,1198.406860 1096.585205,1236.930054 
	C1085.092529,1250.496948 1071.739502,1261.979248 1057.081299,1271.991455 
	C1054.390137,1273.829834 1051.810425,1275.831299 1048.733276,1278.083984 
	C1050.479004,1280.517334 1051.633789,1282.462402 1053.104492,1284.128296 
	C1090.067261,1325.999634 1131.612427,1362.887573 1175.903320,1396.766602 
	C1184.767700,1403.547363 1185.465332,1403.823486 1194.006958,1396.743774 
	C1217.847168,1376.983521 1241.924194,1357.449585 1264.828491,1336.638428 
	C1282.787720,1320.320679 1299.157593,1302.251221 1316.172119,1284.899780 
	C1317.958008,1283.078491 1319.329590,1280.851074 1321.374390,1278.184570 
	C1318.212158,1275.859985 1315.638916,1273.871826 1312.970337,1272.021118 
	C1261.986084,1236.660278 1233.468506,1187.933228 1226.637573,1126.441895 
	C1225.720581,1118.187866 1225.778076,1109.801392 1225.762207,1101.475586 
	C1225.681030,1059.143555 1226.079834,1016.806030 1225.478394,974.482300 
	C1225.324585,963.659241 1228.605225,956.596680 1237.277100,950.148560 
	C1282.020630,916.878540 1330.399292,890.397400 1383.065430,872.240540 
	C1407.271240,863.895508 1432.253662,857.795288 1456.917847,850.796814 
	C1460.365845,849.818481 1464.008667,849.526306 1468.823975,848.699768 
	C1468.568237,852.167542 1468.739624,854.696838 1468.155518,857.037598 
	C1459.119385,893.246033 1449.803101,929.385864 1441.029907,965.657349 
	C1439.310181,972.767517 1434.938965,974.110046 1428.971191,974.994995 
	C1413.837280,977.239197 1398.441406,978.661865 1383.739990,982.609253 
	C1369.370483,986.467407 1355.700562,992.966492 1341.782593,998.455811 
	C1334.811279,1001.205383 1332.044189,1006.211304 1332.133545,1014.035034 
	C1332.506714,1046.696655 1331.462402,1079.392212 1332.529907,1112.023315 
	C1333.683594,1147.288452 1351.454712,1172.967773 1382.265747,1189.771240 
	C1383.392944,1190.385986 1384.764893,1190.551880 1387.263550,1191.296997 
	C1422.374878,1138.378052 1447.965820,1080.811646 1469.267456,1019.818604 
	C1473.101929,1021.208435 1476.191284,1022.004333 1478.986816,1023.392151 
	C1504.659790,1036.137695 1530.306519,1048.936523 1555.905029,1061.830933 
	C1564.828003,1066.325439 1565.110229,1067.209717 1561.693604,1076.568115 
	C1537.241821,1143.545044 1505.640747,1206.886475 1465.698853,1266.034790 
	C1427.457520,1322.664917 1382.480591,1373.450317 1332.337158,1419.688110 
	C1288.873535,1459.766357 1242.414795,1495.982056 1191.624878,1526.480103 
	C1187.037720,1529.234741 1183.722046,1529.669312 1178.971313,1526.808716 
	C1125.921875,1494.865845 1077.557983,1456.840576 1031.881348,1414.124756 
z"/>
<path fill="#1F2F52" opacity="1.000000" stroke="none" 
	d="
M905.987549,807.752441 
	C870.902893,802.161499 836.525146,798.301758 801.845032,797.312500 
	C791.364929,797.013611 780.905029,796.009399 767.991394,795.169189 
	C771.911194,791.740662 773.878174,789.718933 776.131653,788.094666 
	C806.394714,766.279846 836.736328,744.573730 866.949829,722.690674 
	C871.540771,719.365601 876.028381,717.969238 881.775269,718.947693 
	C958.481201,732.007874 1029.657715,758.472961 1091.888062,806.182556 
	C1124.542236,831.217346 1151.687134,861.188232 1169.295166,898.852417 
	C1174.060303,909.045166 1177.590088,919.815369 1182.191162,931.613525 
	C1183.512085,928.899353 1184.708496,927.146362 1185.256958,925.209778 
	C1194.843384,891.362793 1213.769409,863.078613 1237.429443,837.648132 
	C1263.829102,809.273071 1294.952881,786.972534 1329.251587,769.444458 
	C1379.417603,743.807556 1432.415771,726.432678 1488.394531,718.646179 
	C1493.680298,717.911011 1498.113159,718.736938 1502.470825,721.876038 
	C1534.903076,745.239258 1567.425903,768.476746 1599.877686,791.812866 
	C1601.364258,792.881897 1602.443604,794.517334 1604.975586,797.253906 
	C1600.221436,797.580627 1597.066406,798.010071 1593.915283,797.982727 
	C1521.350586,797.354614 1450.535034,808.386963 1381.582275,830.762573 
	C1313.810303,852.755005 1251.328247,884.977173 1195.487671,929.572998 
	C1190.829102,933.293396 1186.169556,937.012573 1180.623535,941.440186 
	C1178.162476,938.733032 1175.557495,936.669373 1173.975586,933.999512 
	C1162.219116,914.155212 1144.123047,901.054810 1125.542725,888.630554 
	C1086.472412,862.505005 1043.873047,843.829651 999.096252,829.931030 
	C968.837341,820.538818 938.064331,813.277954 905.987549,807.752441 
z"/>
<path fill="#36A288" opacity="1.000000" stroke="none" 
	d="
M748.125977,843.523865 
	C747.123169,837.860474 749.294861,835.970154 753.995667,835.997253 
	C768.990112,836.083679 784.007812,835.516724 798.974182,836.170959 
	C815.562561,836.896057 832.098450,838.767517 848.670166,839.960388 
	C852.883179,840.263733 855.187988,841.760620 856.296570,846.145996 
	C867.295105,889.653870 878.486511,933.112976 889.917542,977.734192 
	C857.532715,993.956848 825.519958,1009.993103 792.784668,1026.391357 
	C791.700439,1023.909973 790.511475,1022.007812 790.017883,1019.939697 
	C777.288513,966.604858 764.631714,913.252808 751.961975,859.903687 
	C750.733093,854.729248 749.502075,849.555237 748.125977,843.523865 
z"/>
<path fill="#35A288" opacity="1.000000" stroke="none" 
	d="
M1553.527588,1762.564819 
	C1552.736450,1745.541138 1552.519653,1729.234985 1552.328369,1712.928589 
	C1552.282471,1709.017456 1552.321655,1705.105225 1552.321655,1700.613770 
	C1534.781738,1700.613770 1518.288330,1700.613770 1500.693481,1700.613770 
	C1500.693481,1721.322998 1500.693481,1741.835693 1500.693481,1763.741089 
	C1491.805176,1763.842651 1483.964844,1763.966309 1476.124023,1764.012329 
	C1468.502319,1764.057007 1460.880127,1764.022095 1453.459229,1764.022095 
	C1451.271118,1756.179199 1450.775269,1618.906982 1452.804443,1606.602783 
	C1468.150635,1606.602783 1483.595093,1606.602783 1500.312866,1606.602783 
	C1500.312866,1624.629028 1500.312866,1642.110352 1500.312866,1660.298706 
	C1518.032593,1660.298706 1534.486450,1660.298706 1552.223145,1660.298706 
	C1552.223145,1642.434814 1552.223145,1624.949341 1552.223145,1606.756836 
	C1568.968994,1606.756836 1584.464233,1606.756836 1600.022461,1606.756836 
	C1602.085205,1613.543091 1602.656494,1750.280762 1600.534424,1763.282349 
	C1585.127808,1763.282349 1569.619507,1763.282349 1553.527588,1762.564819 
z"/>
<path fill="#36A288" opacity="1.000000" stroke="none" 
	d="
M1591.839233,971.888062 
	C1587.393433,990.074951 1583.108887,1007.443848 1578.512451,1026.077759 
	C1546.725098,1012.150024 1517.213257,995.826782 1486.175049,980.943726 
	C1489.150879,969.428162 1491.885498,958.553345 1494.774658,947.719727 
	C1503.770630,913.987000 1512.888062,880.286560 1521.778442,846.526245 
	C1522.918823,842.196228 1524.404785,839.497375 1529.439697,839.025635 
	C1558.644531,836.290039 1587.903442,835.551331 1617.209473,836.106934 
	C1618.477539,836.130981 1619.736328,836.645142 1621.617065,837.070862 
	C1621.617065,839.785400 1622.101807,842.425354 1621.545166,844.823486 
	C1611.772705,886.923279 1601.872803,928.993469 1591.839233,971.888062 
z"/>
<path fill="#35A288" opacity="1.000000" stroke="none" 
	d="
M1005.881104,1764.022095 
	C995.612915,1764.022095 986.318848,1764.022095 977.029663,1764.022095 
	C977.078796,1756.371460 1025.645020,1624.311523 1034.799927,1606.531494 
	C1052.035278,1606.531494 1069.543335,1606.531494 1087.322876,1606.531494 
	C1106.840820,1658.599121 1126.272705,1710.437256 1146.084229,1763.288208 
	C1128.874023,1763.288208 1112.763062,1763.288208 1095.430542,1763.288208 
	C1092.858276,1755.581177 1090.063843,1747.208496 1087.154053,1738.489990 
	C1069.047119,1738.489990 1051.156616,1738.489990 1032.583252,1738.489990 
	C1029.995117,1746.573242 1027.391357,1754.704956 1024.408203,1764.022095 
	C1018.641541,1764.022095 1012.748291,1764.022095 1005.881104,1764.022095 
M1071.994385,1686.588013 
	C1068.346802,1674.765259 1064.699097,1662.942383 1061.051514,1651.119629 
	C1053.807495,1668.222900 1048.040039,1684.880737 1043.718994,1702.362183 
	C1055.260498,1702.362183 1065.361328,1702.362183 1076.546021,1702.362183 
	C1074.948486,1696.933716 1073.658203,1692.549683 1071.994385,1686.588013 
z"/>
<path fill="#1F2E52" opacity="1.000000" stroke="none" 
	d="
M1220.541992,796.517395 
	C1210.630249,807.706726 1201.221680,818.401489 1190.866333,830.172363 
	C1190.715576,827.117615 1190.177246,824.995056 1190.579712,823.069214 
	C1198.862427,783.444214 1215.926880,748.191650 1243.064331,717.956238 
	C1273.812256,683.698364 1312.110718,660.960205 1354.444824,644.112793 
	C1364.331421,640.178345 1372.127075,640.314758 1380.930542,647.464966 
	C1395.126831,658.995056 1410.545776,669.016602 1425.401855,679.739685 
	C1428.565063,682.022888 1431.529297,684.581726 1436.099854,688.218933 
	C1431.505371,689.812012 1428.600952,691.075867 1425.569946,691.830933 
	C1387.929199,701.207642 1351.664917,714.458374 1316.896851,731.555969 
	C1282.076660,748.679260 1249.608276,769.498779 1220.541992,796.517395 
z"/>
<path fill="#35A187" opacity="1.000000" stroke="none" 
	d="
M891.399048,1606.006836 
	C897.179932,1605.541382 899.856384,1607.185181 899.716187,1612.608887 
	C899.493835,1621.212524 899.656799,1629.826416 899.656799,1639.666504 
	C875.858521,1639.666504 852.751343,1639.666504 829.012085,1639.666504 
	C829.012085,1649.042236 829.012085,1657.179932 829.012085,1666.381592 
	C848.395569,1668.007324 867.653931,1666.242798 887.562988,1667.470825 
	C887.562988,1677.849487 887.562988,1687.957031 887.562988,1699.280029 
	C867.929932,1699.280029 848.768921,1699.280029 828.535522,1699.280029 
	C828.535522,1721.282227 828.535522,1742.114014 828.535522,1763.473389 
	C811.591492,1763.473389 795.765198,1763.473389 780.049194,1763.473389 
	C777.700989,1755.070923 777.628784,1615.563843 780.136230,1606.004150 
	C816.717529,1606.004150 853.589966,1606.004150 891.399048,1606.006836 
z"/>
<path fill="#1F2E52" opacity="1.000000" stroke="none" 
	d="
M974.499634,658.528931 
	C981.322144,653.667480 987.624146,649.308655 993.808777,644.789246 
	C997.026550,642.437927 1000.281067,641.747253 1004.106812,643.109558 
	C1092.504883,674.589355 1154.910156,730.408203 1175.172729,825.704468 
	C1175.507324,827.278137 1175.473267,828.930115 1175.735596,832.001526 
	C1173.615967,830.444641 1172.209106,829.845825 1171.441528,828.784607 
	C1143.731689,790.472778 1106.955811,762.740173 1066.647217,739.226257 
	C1029.323975,717.453796 989.640930,701.253784 947.920898,690.027771 
	C945.993835,689.509277 944.066162,688.966553 942.192566,688.286682 
	C941.285889,687.957581 940.504211,687.283936 939.113953,686.425476 
	C943.023193,679.348450 950.334778,676.399170 956.105530,671.826477 
	C961.842224,667.280701 967.972595,663.231750 974.499634,658.528931 
z"/>
<path fill="#35A188" opacity="1.000000" stroke="none" 
	d="
M1245.993774,600.011902 
	C1251.126465,605.205505 1255.758667,609.898621 1259.966675,614.161804 
	C1233.768066,640.266479 1208.124512,665.817871 1182.286499,691.563232 
	C1176.652222,688.349854 1120.734619,633.499695 1105.966553,616.460510 
	C1131.754639,590.703918 1157.489014,565.000854 1184.250366,538.272156 
	C1203.832642,557.853149 1224.662964,578.682251 1245.993774,600.011902 
z"/>
<path fill="#35A188" opacity="1.000000" stroke="none" 
	d="
M1265.663208,1755.169434 
	C1265.655884,1718.355347 1265.655884,1682.457153 1265.655884,1645.359863 
	C1248.670532,1645.359863 1232.827393,1645.359863 1216.327393,1645.359863 
	C1216.327393,1631.961426 1216.327393,1619.759888 1216.327393,1607.571167 
	C1223.799561,1605.590454 1352.093262,1605.240967 1363.091553,1607.258545 
	C1363.091553,1619.293579 1363.091553,1631.440186 1363.091553,1644.692627 
	C1346.890381,1644.954712 1331.079224,1645.210449 1314.482666,1645.479004 
	C1314.482666,1685.259888 1314.482666,1723.829468 1314.482666,1763.299805 
	C1305.959229,1764.629883 1298.068848,1763.864258 1290.253174,1763.996216 
	C1282.613403,1764.125122 1274.969604,1764.024292 1266.627563,1764.024292 
	C1266.274536,1761.095581 1265.972534,1758.590576 1265.663208,1755.169434 
z"/>
<path fill="#040C0A" opacity="1.000000" stroke="none" 
	d="
M1072.181152,1687.376709 
	C1073.658203,1692.549683 1074.948486,1696.933716 1076.546021,1702.362183 
	C1065.361328,1702.362183 1055.260498,1702.362183 1043.718994,1702.362183 
	C1048.040039,1684.880737 1053.807495,1668.222900 1061.051514,1651.119629 
	C1064.699097,1662.942383 1068.346802,1674.765259 1072.181152,1687.376709 
z"/>
</svg>